# xmcd
#
# Track frame offsets: 
#        150
#        14570
#        30355
#        42704
#        56358
#        72415
#        85986
#        101581
#        115031
#        126152
#        137396
#        152330
#        163536
#        172307
#        181875
#        190080
#        204858
#        221738
#        234200
#        246586
#        260673
#        273209
#        284577
#        298123
#        310602
#        321602
#        331856
#        344903
#
# Disc length: 4777 seconds
#
# Revision: 0
# Processed by: cddbd v1.5.2PL0 Copyright (c) Steve Scherf et al.
# Submitted via: ExactAudioCopy v0.99pb5
#
DISCID=a812a71c
DTITLE=Elvis Presley  - FTD 64-2 - Pot Luck - CD 2  
DYEAR=1900
DGENRE=
TTITLE0=Something Blue (Take 2)
TTITLE1=Something Blue (Takes 3-4)
TTITLE2=Gonna Get Back Home Somehow (Take 2)
TTITLE3=Gonna Get Back Home Somehow (Takes 3, 5)
TTITLE4=Easy Question (Takes 1, 3)
TTITLE5=Fountain Of Love (Takes 4, 9)
TTITLE6=Just For Old Times Sake (Takes 2-4)
TTITLE7=Night Rider (Takes 2-3)
TTITLE8=Night Rider (Take 5)
TTITLE9=You'll Be Gone (Take 2)
TTITLE10=You'll Be Gone (Take 4)
TTITLE11=I Feel That I've Known You Forever (Takes 4, 3)
TTITLE12=Just Tell Her Jim Said Hello (Take 2)
TTITLE13=Just Tell Her Jim Said Hello (Take 4)
TTITLE14=Just Tell Her Jim Said Hello (Take 5)
TTITLE15=Suspicion (Takes 3, 2)
TTITLE16=She's Not You (Take 2, WP Take 4)
TTITLE17=For The Millionth And The Last Time (Takes 10, 7)
TTITLE18=I Met Her Today (Take 4)
TTITLE19=I Met Her Today (Takes 8-9)
TTITLE20=I Met Her Today (Take 16)
TTITLE21=Night Rider (Takes 1-2)
TTITLE22=Kiss Me Quick (Take 4)
TTITLE23=I'm Yours (Take 2)
TTITLE24=I'm Yours (Take 4)
TTITLE25=I'm Yours (Take 5)
TTITLE26=That's Someone You Never Forget (Take 5)
TTITLE27=That's Someone You Never Forget (Take 7)
EXTD=
EXTT0=
EXTT1=
EXTT2=
EXTT3=
EXTT4=
EXTT5=
EXTT6=
EXTT7=
EXTT8=
EXTT9=
EXTT10=
EXTT11=
EXTT12=
EXTT13=
EXTT14=
EXTT15=
EXTT16=
EXTT17=
EXTT18=
EXTT19=
EXTT20=
EXTT21=
EXTT22=
EXTT23=
EXTT24=
EXTT25=
EXTT26=
EXTT27=
PLAYORDER=
